# xmcd CD database file
#
# Track frame offsets:
#	150
#	19511
#	42422
#	66852
#	85545
#	113004
#	126624
#	145795
#	166600
#	182105
#
# Disc length: 2685 seconds
#
# Revision: 1
# Processed by: cddbd v1.4PL0 Copyright (c) Steve Scherf et al.
# Submitted via: CDex 1.40Release
#
DISCID=7d0a7b0a
DTITLE=Bill Ray Charles - I Can Dish It Out
DYEAR=1900
DGENRE=Blues
TTITLE0=Forgive This Fool
TTITLE1=I Can Dish It Out But I Can't Take It
TTITLE2=Stay Away If She's Married
TTITLE3=Excuse Me
TTITLE4=What's The Matter With The Blues
TTITLE5=For A Sweet Woman
TTITLE6=I been Partying All Night
TTITLE7=Cheater
TTITLE8=Do you Know Where Your Woman Is
TTITLE9=Love Me or Set Me Free 
EXTD=ID3G: 0
EXTT0=
EXTT1=
EXTT2=
EXTT3=
EXTT4=
EXTT5=
EXTT6=
EXTT7=
EXTT8=
EXTT9=
PLAYORDER=
